<?xml version="1.0" standalone="no"?>
<!DOCTYPE svg PUBLIC "-//W3C//DTD SVG 20010904//EN"
 "http://www.w3.org/TR/2001/REC-SVG-20010904/DTD/svg10.dtd">
<svg version="1.0" xmlns="http://www.w3.org/2000/svg"
 width="1024.000000pt" height="1024.000000pt" viewBox="0 0 1024.000000 1024.000000"
 preserveAspectRatio="xMidYMid meet">

<g transform="translate(0.000000,1024.000000) scale(0.100000,-0.100000)"
fill="#000000" stroke="none">
<path d="M5276 8870 c-60 -16 -145 -42 -190 -58 -44 -17 -142 -51 -216 -77
-74 -25 -165 -58 -203 -71 -114 -43 -334 -113 -477 -151 l-135 -36 -657 -3
c-362 -1 -662 -6 -669 -9 -7 -5 -10 -25 -7 -55 5 -54 71 -169 105 -185 26 -11
29 -34 32 -299 1 -110 4 -203 7 -208 3 -4 -13 -8 -35 -8 -64 0 -71 -6 -71 -62
0 -60 16 -93 68 -140 37 -33 40 -40 44 -101 5 -80 34 -123 107 -160 l50 -24
-30 -29 c-35 -34 -36 -51 -4 -98 39 -58 41 -81 10 -102 -42 -29 -75 -62 -75
-74 0 -13 44 -58 79 -81 22 -14 23 -18 12 -50 -6 -19 -27 -60 -46 -90 -46 -71
-44 -105 8 -138 20 -13 37 -32 37 -40 0 -9 -18 -40 -40 -69 -61 -82 -63 -155
-5 -200 47 -37 49 -57 14 -118 -60 -105 -50 -216 33 -362 16 -29 27 -59 24
-67 -3 -8 -27 -25 -54 -39 -72 -36 -77 -61 -21 -95 l29 -18 -30 -28 c-37 -35
-41 -84 -9 -116 l21 -21 -58 7 -59 6 3 -425 c3 -383 2 -426 -12 -426 -13 0
-16 -12 -16 -64 0 -94 1 -96 76 -96 58 0 65 -2 81 -28 45 -70 124 -104 243
-105 47 -1 290 0 541 1 251 1 502 -3 557 -8 56 -5 143 -6 194 -2 51 4 125 7
163 6 39 -1 140 -1 225 -1 85 1 207 0 270 -2 63 -2 176 -4 250 -4 74 0 329 0
565 -1 1169 -2 1560 5 1793 33 34 4 62 5 62 2 0 -3 -54 -19 -119 -35 -141 -34
-221 -74 -221 -110 0 -20 6 -25 40 -31 74 -12 82 -26 88 -155 5 -108 4 -113
-14 -105 -91 37 -187 45 -245 21 -19 -8 -71 -47 -116 -86 -64 -55 -90 -86
-113 -134 -40 -80 -60 -157 -60 -227 0 -78 49 -174 143 -277 84 -93 103 -109
177 -149 77 -42 127 -57 190 -58 62 -2 157 -13 180 -22 8 -3 38 -7 66 -10 117
-11 157 57 130 222 -11 61 -24 82 -67 103 l-34 17 0 500 c0 275 1 481 3 457 3
-41 22 -51 22 -11 0 10 3 18 8 17 4 0 14 2 22 5 8 3 34 11 57 17 59 15 97 62
89 109 -3 20 -6 56 -7 81 l-2 45 -7 -35 c-6 -28 -8 -21 -10 40 -1 41 -3 84 -4
95 -2 42 16 254 29 344 19 123 11 231 -21 290 -19 35 -24 58 -24 117 l0 74
-59 0 -59 0 14 38 c7 20 14 57 14 82 1 25 5 54 9 65 12 29 -6 60 -50 91 -22
15 -39 35 -39 44 0 18 23 44 32 35 3 -3 19 0 36 6 60 21 80 127 43 231 -10 29
-22 65 -25 79 -3 14 -17 42 -31 63 -31 45 -31 52 -3 32 31 -22 35 -21 54 15
10 21 14 44 10 68 -3 20 -7 42 -8 49 -1 6 -4 12 -7 12 -3 0 -4 22 -3 48 3 44
0 53 -37 100 -38 48 -56 81 -29 54 16 -16 34 -15 53 4 28 28 11 137 -31 201
-19 29 -34 61 -33 70 0 11 3 13 6 6 6 -17 54 -16 77 0 19 14 19 18 0 117 -3
19 -20 49 -36 66 l-29 31 37 7 c50 10 79 30 112 80 16 22 44 64 64 92 20 28
44 66 53 84 10 19 24 40 31 48 8 7 14 25 15 40 1 15 2 42 4 60 1 18 -1 35 -6
38 -5 3 -9 13 -9 22 0 9 -14 37 -30 61 -26 38 -30 53 -30 113 l0 68 -46 0
c-32 0 -44 4 -41 13 2 6 14 11 27 9 13 -2 20 1 16 6 -3 6 -3 12 2 14 4 1 15
50 24 108 10 58 29 134 43 169 16 43 25 84 25 122 l0 57 -47 29 c-27 15 -57
32 -68 36 -18 8 -18 9 5 20 13 7 34 27 46 45 25 36 41 109 27 123 -4 4 -298
10 -653 12 l-645 4 -95 26 c-52 14 -174 53 -270 85 -96 33 -290 99 -430 146
-290 98 -357 119 -488 146 -122 26 -174 24 -306 -10z m-1698 -607 c-16 -2 -40
-2 -55 0 -16 2 -3 4 27 4 30 0 43 -2 28 -4z m1517 -7 c59 -25 69 -79 10 -56
-55 21 -125 4 -125 -29 0 -14 36 -41 71 -52 41 -15 103 -57 119 -82 18 -29 2
-73 -41 -111 -50 -46 -98 -48 -155 -10 -21 15 -42 31 -46 37 -17 28 25 37 52
12 49 -44 140 -22 140 34 0 32 -25 53 -93 77 -53 19 -87 51 -87 81 0 53 53
111 103 113 10 0 33 -6 52 -14z m-1477 -24 c-4 -19 -40 -29 -110 -31 -42 -1
-48 -4 -49 -23 -1 -13 -3 -33 -4 -44 -2 -18 5 -23 34 -28 20 -3 48 -6 64 -6
22 0 27 -4 27 -25 0 -24 -3 -25 -60 -25 l-60 0 0 -55 0 -55 70 0 c54 0 72 -4
77 -15 3 -9 3 -19 -1 -22 -3 -4 -48 -7 -99 -7 l-92 -1 -3 180 -2 180 105 -3
c93 -3 106 -5 103 -20z m1115 -8 c49 -34 87 -102 87 -154 0 -52 -30 -100 -84
-137 -40 -28 -58 -33 -104 -33 -108 0 -181 73 -182 181 0 52 28 96 97 151 34
27 44 29 91 26 37 -3 65 -13 95 -34z m782 11 c0 -17 -8 -20 -47 -23 l-47 -3
-3 -152 c-3 -149 -3 -152 -25 -155 -19 -3 -23 1 -23 25 -1 15 -2 84 -3 153
l-2 124 -47 -3 c-47 -2 -48 -2 -48 27 l0 29 123 -1 c115 -1 122 -2 122 -21z
m304 12 c40 -20 66 -64 66 -112 0 -36 -6 -50 -32 -77 -32 -33 -41 -53 -25 -60
9 -4 72 -84 72 -92 0 -3 -13 -6 -29 -6 -23 0 -35 10 -68 57 -33 49 -45 59 -76
64 l-37 6 0 -69 c0 -67 -3 -74 -34 -62 -14 5 -16 29 -16 163 0 211 -4 201 84
201 39 0 82 -6 95 -13z m414 -132 c98 -220 93 -205 77 -215 -23 -15 -30 -12
-40 18 -18 49 -33 71 -43 65 -5 -3 -40 -5 -77 -5 l-67 2 -18 -40 c-18 -39 -42
-57 -56 -43 -14 14 7 112 29 136 11 12 32 49 47 82 14 33 38 80 52 104 30 52
23 59 96 -104z m375 130 c76 -32 112 -90 112 -181 0 -46 -5 -59 -32 -89 -44
-51 -101 -77 -179 -83 l-66 -4 -6 107 c-4 60 -7 143 -7 187 l0 78 70 0 c41 0
86 -6 108 -15z m458 2 c122 -71 148 -185 66 -296 -66 -89 -201 -76 -279 27
-64 85 -31 187 87 265 28 20 96 22 126 4z m396 -7 c49 -14 78 -55 78 -113 0
-48 -25 -91 -60 -102 -18 -6 -16 -11 25 -62 30 -36 43 -59 36 -66 -18 -18 -57
2 -80 43 -32 57 -48 70 -87 70 l-34 0 0 -55 c0 -41 -4 -55 -14 -55 -8 0 -17 4
-20 9 -3 5 -3 84 1 175 l6 166 56 0 c31 0 73 -5 93 -10z m-3381 -114 l57 -60
29 25 c17 13 42 43 57 66 15 22 37 48 51 57 24 16 24 15 29 -27 3 -23 8 -97
11 -164 5 -117 5 -123 -14 -123 -22 0 -26 10 -40 99 -10 61 -31 107 -31 68 0
-9 -21 -33 -47 -52 l-48 -35 -52 58 c-28 31 -54 54 -58 50 -4 -4 -9 -38 -12
-75 -6 -99 -10 -113 -33 -113 -24 0 -25 13 -8 203 l12 139 20 -29 c11 -15 46
-55 77 -87z m-879 -106 c-2 -82 -6 -150 -10 -150 -25 1 -30 19 -24 85 l7 70 6
-50 6 -50 1 61 c1 34 -1 82 -4 108 l-7 46 -103 0 c-86 0 -104 3 -104 15 0 12
20 15 118 15 l117 0 -3 -150z m4730 63 c-2 -49 -8 -113 -12 -143 -6 -36 -6 -9
-3 78 l6 132 -62 0 c-34 0 -61 4 -61 10 0 6 29 10 68 10 l67 0 -3 -87z m-4084
-30 c3 -22 0 -23 -68 -23 -62 0 -71 2 -66 16 3 9 6 20 6 25 0 6 27 9 63 7 56
-3 62 -5 65 -25z m-849 -50 c0 -39 -3 -51 -8 -38 -8 19 -3 95 5 95 2 0 4 -26
3 -57z m12 -98 c5 4 9 1 9 -4 0 -6 14 -11 32 -11 44 0 30 -10 -21 -14 -48 -4
-55 2 -44 41 7 26 8 26 11 5 2 -12 8 -20 13 -17z m4865 -18 c4 -4 -27 -7 -69
-7 -43 0 -77 4 -77 8 0 10 136 10 146 -1z m-4648 -164 c-42 -2 -114 -2 -160 0
-46 1 -11 3 77 3 88 0 125 -2 83 -3z m4675 0 c-24 -2 -62 -2 -85 0 -24 2 -5 4
42 4 47 0 66 -2 43 -4z m-2038 -385 c262 -11 302 -12 500 -9 88 2 223 -2 300
-9 100 -9 254 -11 537 -7 l398 6 44 -38 c24 -21 56 -41 71 -45 l26 -7 -25 -30
c-33 -39 -33 -69 0 -100 31 -29 57 -76 51 -93 -3 -6 -25 -22 -51 -35 -25 -13
-48 -32 -51 -41 -10 -31 14 -70 60 -98 41 -24 45 -30 40 -56 -3 -16 -20 -48
-39 -70 -18 -23 -36 -51 -40 -63 -9 -27 12 -68 53 -107 17 -17 31 -35 31 -40
0 -6 -15 -21 -34 -33 -39 -25 -66 -77 -66 -129 0 -32 7 -45 50 -86 28 -26 50
-51 50 -56 0 -4 -18 -33 -40 -65 -22 -33 -42 -75 -46 -95 -13 -69 15 -165 80
-281 30 -53 26 -60 -46 -97 -43 -22 -49 -29 -46 -52 2 -20 13 -32 41 -45 20
-10 37 -22 37 -26 0 -4 -11 -18 -25 -31 -29 -27 -31 -47 -9 -78 9 -13 14 -25
13 -26 -2 -2 -100 -1 -216 2 -210 5 -213 5 -213 27 0 49 -51 74 -151 75 -55 0
-63 12 -44 66 16 48 89 94 149 94 50 0 123 35 132 62 3 11 3 55 -1 97 -4 42
-7 135 -7 208 1 106 -2 136 -14 148 -13 13 -73 15 -424 15 l-410 0 -14 -22
c-8 -13 -17 -64 -20 -118 -4 -52 -12 -130 -18 -172 -10 -70 -10 -80 7 -98 10
-11 34 -23 53 -26 19 -4 57 -21 85 -37 33 -21 71 -34 120 -42 l72 -11 3 -34
c5 -47 -13 -102 -37 -117 -11 -7 -60 -16 -108 -20 -72 -5 -91 -10 -110 -29
-13 -13 -23 -32 -23 -43 0 -19 -8 -20 -132 -23 -73 -2 -179 -2 -235 0 l-103 3
0 49 c0 27 5 52 11 56 7 4 9 28 7 61 -3 30 -1 56 3 59 4 2 3 21 -3 42 -10 36
-5 202 7 234 8 21 -21 48 -51 48 -43 0 -63 -18 -100 -95 -85 -175 -252 -249
-545 -243 l-124 3 2 25 c1 14 4 61 7 105 3 44 7 91 10 105 26 138 39 170 80
209 27 26 80 40 147 41 45 0 48 -2 78 -49 30 -46 94 -101 118 -101 6 0 18 12
28 26 16 24 16 34 5 100 -8 46 -10 108 -6 166 3 51 1 129 -4 173 -6 44 -11 91
-11 105 0 48 -19 80 -49 80 -31 0 -49 -18 -78 -75 -46 -90 -98 -115 -239 -114
-70 1 -99 4 -83 9 14 4 20 8 14 9 -12 1 -1 89 18 149 5 19 11 44 12 55 16 134
87 171 331 172 l130 0 30 -49 c45 -74 129 -156 159 -156 43 0 57 36 67 172 5
68 12 158 15 200 6 70 4 80 -17 110 -13 18 -26 35 -30 38 -4 3 -9 26 -11 50
-3 44 -4 45 -33 41 -16 -2 -318 -6 -670 -10 l-640 -6 -3 -33 c-4 -43 15 -73
94 -145 l64 -59 0 -266 c0 -204 -4 -282 -16 -332 -12 -53 -13 -69 -2 -95 10
-22 13 -110 13 -340 0 -309 0 -310 -23 -343 -13 -18 -46 -44 -73 -57 -54 -28
-73 -54 -67 -96 l4 -28 -200 -3 c-111 -2 -205 -1 -209 0 -4 2 -3 10 3 17 11
14 8 155 -5 175 -3 5 -1 10 4 10 27 0 5 157 -28 201 l-22 29 21 0 c43 0 38 70
-7 89 -20 8 -130 11 -368 9 l-339 -3 -12 -24 c-15 -30 -10 -45 22 -59 33 -16
30 -31 -6 -38 -34 -7 -34 -8 -19 -35 15 -28 53 -42 139 -49 l75 -7 -70 -1
c-117 -3 -175 -30 -144 -68 14 -17 72 -36 101 -34 64 6 63 -4 -2 -11 -83 -10
-106 -25 -96 -63 5 -19 16 -28 49 -37 44 -12 44 -14 -15 -24 -30 -5 -38 -10
-38 -27 0 -12 7 -30 17 -40 16 -17 11 -18 -115 -18 -121 0 -152 6 -121 26 8 4
8 9 0 17 -6 6 -11 17 -11 23 0 7 -5 25 -11 41 -15 36 -18 63 -7 69 21 13 5 51
-43 96 -28 26 -48 52 -45 57 4 5 19 12 35 16 16 3 35 13 41 21 7 7 16 11 21 9
12 -8 22 58 16 102 -16 121 -32 185 -60 242 -38 76 -43 92 -24 69 19 -24 42
-23 83 3 42 25 44 52 9 117 -14 26 -25 54 -25 62 0 8 -16 40 -35 70 -39 60
-43 76 -18 61 29 -16 73 13 73 48 0 16 -7 34 -15 41 -8 7 -15 22 -15 34 0 12
-13 42 -28 67 -15 24 -31 49 -34 54 -4 7 6 9 28 7 21 -3 44 2 60 13 24 16 26
21 21 64 -6 46 -25 95 -58 141 l-17 26 41 -1 c41 0 43 2 69 52 24 47 51 76
197 211 74 69 93 71 731 77 305 4 589 10 630 14 102 11 736 11 995 -1z m-244
-831 c-10 -9 -11 -8 -5 6 3 10 9 15 12 12 3 -3 0 -11 -7 -18z m-1823 -794
c-16 -2 -40 -2 -55 0 -16 2 -3 4 27 4 30 0 43 -2 28 -4z m135 -3 c-12 -5 -34
-5 -50 0 -24 7 -21 8 22 9 38 0 45 -2 28 -9z m1465 -317 c-21 -2 -57 -2 -80 0
-24 2 -7 4 37 4 44 0 63 -2 43 -4z m570 0 c-32 -2 -84 -2 -115 0 -32 2 -6 3
57 3 63 0 89 -1 58 -3z m1060 0 c-21 -2 -57 -2 -80 0 -24 2 -7 4 37 4 44 0 63
-2 43 -4z m-3185 -280 c-7 -2 -19 -2 -25 0 -7 3 -2 5 12 5 14 0 19 -2 13 -5z
m60 0 c-7 -2 -21 -2 -30 0 -10 3 -4 5 12 5 17 0 24 -2 18 -5z m50 0 c-7 -2
-19 -2 -25 0 -7 3 -2 5 12 5 14 0 19 -2 13 -5z m1040 0 c-7 -2 -19 -2 -25 0
-7 3 -2 5 12 5 14 0 19 -2 13 -5z m490 0 c-56 -2 -151 -2 -210 0 -59 1 -13 3
102 3 116 0 164 -2 108 -3z m1897 -353 c-6 -11 -18 -20 -26 -20 -12 0 -10 5 7
20 30 25 32 25 19 0z m-2658 -17 c-206 -2 -539 -2 -740 0 -202 1 -34 2 373 2
407 0 572 -1 367 -2z m1000 0 c-51 -2 -132 -2 -180 0 -48 1 -6 3 93 3 99 0
138 -2 87 -3z m1310 0 c-73 -2 -190 -2 -260 0 -70 1 -10 3 133 3 143 0 200 -2
127 -3z m-3239 -20 c-13 -2 -33 -2 -45 0 -13 2 -3 4 22 4 25 0 35 -2 23 -4z
m-245 -180 c-43 -2 -113 -2 -155 0 -43 1 -8 3 77 3 85 0 120 -2 78 -3z m412
-3 c0 -6 -46 -9 -122 -8 -114 1 -118 2 -48 8 124 11 170 11 170 0z m545 -4
c41 -7 -442 -4 -490 3 -27 3 67 5 210 3 143 -2 269 -4 280 -6z m458 7 c-72 -2
-194 -2 -270 0 -76 1 -16 3 132 3 149 0 211 -2 138 -3z m1005 0 c-81 -2 -216
-2 -300 0 -84 1 -18 3 147 3 165 0 234 -2 153 -3z m1645 0 c-23 -2 -64 -2 -90
0 -26 2 -7 3 42 3 50 0 71 -1 48 -3z m-1075 -10 c-60 -2 -156 -2 -215 0 -60 1
-11 3 107 3 118 0 167 -2 108 -3z m510 0 c-64 -2 -172 -2 -240 0 -68 1 -15 3
117 3 132 0 187 -2 123 -3z m202 -790 c-1 -5 -17 -26 -37 -48 -38 -43 -34 -28
7 23 27 33 30 36 30 25z m369 -130 c14 -49 14 -172 0 -248 -6 -33 -12 -68 -12
-77 -1 -9 -4 -16 -7 -15 -3 0 -21 -8 -41 -18 -46 -22 -96 -15 -138 21 -38 32
-81 118 -81 163 0 41 19 101 40 126 28 33 146 83 202 84 23 1 29 -5 37 -36z
m12 -310 c-12 -20 -14 -14 -5 12 4 9 9 14 11 11 3 -2 0 -13 -6 -23z"/>
<path d="M4570 8188 c-40 -28 -70 -81 -70 -125 0 -47 64 -113 111 -114 63 -2
74 2 118 47 40 41 43 49 38 84 -7 53 -39 95 -87 114 -54 21 -71 20 -110 -6z"/>
<path d="M5697 8203 c-4 -3 -7 -34 -7 -69 l0 -62 43 -5 c53 -5 88 10 100 46
13 40 1 76 -29 87 -29 11 -97 13 -107 3z"/>
<path d="M6121 8094 c-11 -14 -18 -31 -15 -38 5 -13 104 -39 113 -30 10 10
-25 65 -50 78 -27 14 -30 13 -48 -10z"/>
<path d="M6480 8092 c0 -78 4 -122 12 -130 7 -7 34 -12 61 -12 41 0 53 5 77
30 42 45 53 80 41 127 -19 71 -68 103 -157 103 l-34 0 0 -118z"/>
<path d="M6944 8181 c-65 -40 -90 -101 -63 -154 33 -64 92 -93 164 -82 36 5
48 12 66 41 73 118 -53 264 -167 195z"/>
<path d="M7350 8136 l0 -75 58 6 c80 7 107 39 81 97 -13 28 -55 46 -105 46
l-34 0 0 -74z"/>
<path d="M6080 5460 c0 -22 2 -40 4 -40 2 0 6 18 8 40 2 22 0 40 -4 40 -5 0
-8 -18 -8 -40z"/>
<path d="M390 5341 c0 -12 5 -21 10 -21 6 0 10 6 10 14 0 8 -4 18 -10 21 -5 3
-10 -3 -10 -14z"/>
<path d="M690 4726 c0 -2 7 -6 15 -10 8 -3 15 -1 15 4 0 6 -7 10 -15 10 -8 0
-15 -2 -15 -4z"/>
<path d="M2010 4190 c-10 -7 -134 -8 -366 -4 -193 4 -363 4 -378 0 -39 -10
-34 -42 11 -65 49 -25 81 -56 88 -84 3 -12 5 -196 3 -408 -3 -430 0 -407 -74
-441 -48 -21 -58 -38 -40 -64 11 -15 33 -18 130 -22 94 -4 116 -7 112 -18 -3
-8 -2 -14 2 -14 4 0 33 -22 64 -49 31 -27 79 -59 105 -71 144 -66 178 -73 318
-68 113 4 125 7 157 32 l36 27 7 153 c6 130 5 158 -9 184 -9 17 -16 51 -16 76
0 52 -18 98 -37 94 -7 -2 -36 -39 -65 -83 -76 -115 -106 -130 -260 -130 -134
0 -157 10 -143 62 5 15 9 31 9 34 2 10 52 64 72 76 10 7 39 23 64 35 25 12 47
26 48 30 2 5 10 4 18 -3 8 -6 23 -9 34 -6 27 7 25 -1 -2 -13 -22 -9 -22 -9 3
-9 35 -1 40 15 34 107 -2 42 -7 121 -11 176 -5 79 -10 102 -26 118 -25 25 -49
20 -65 -15 -7 -15 -19 -39 -26 -54 -12 -26 -18 -28 -81 -31 l-67 -3 7 48 c3
26 11 57 17 68 12 24 68 73 105 92 33 17 129 15 157 -4 11 -7 27 -13 36 -13
10 0 19 -4 21 -9 5 -16 70 -18 76 -2 2 8 1 11 -4 8 -5 -3 -11 50 -13 116 -4
146 -13 172 -51 147z"/>
<path d="M3452 4043 c-34 -76 -78 -165 -97 -198 -19 -33 -56 -100 -82 -148
l-47 -89 -17 39 c-56 127 -242 509 -252 515 -14 9 -249 8 -292 -1 -49 -10 -45
-44 7 -72 23 -13 48 -35 55 -49 11 -20 13 -111 11 -416 -3 -440 1 -413 -80
-455 -37 -19 -45 -33 -30 -55 4 -7 41 -13 82 -15 77 -4 106 -19 123 -61 8 -22
89 -68 138 -79 80 -18 97 9 60 91 -13 28 -17 55 -14 81 l6 38 -43 7 c-37 6
-111 53 -85 54 6 0 10 85 9 236 -1 271 -3 269 77 104 151 -312 182 -370 201
-376 11 -3 38 2 59 12 33 14 50 36 115 143 42 69 84 138 95 153 10 15 19 34
19 43 0 9 5 13 10 10 6 -4 10 -70 10 -166 0 -155 -1 -161 -24 -184 -13 -13
-40 -27 -60 -30 -43 -8 -50 -17 -42 -51 5 -20 13 -24 41 -24 25 0 33 -4 29
-14 -3 -9 7 -21 25 -32 17 -10 31 -21 31 -25 0 -4 24 -23 54 -43 98 -65 247
-85 297 -40 19 17 21 27 16 82 -3 35 -10 69 -16 75 -6 6 -11 21 -11 34 0 14
-8 26 -17 30 -70 24 -87 34 -74 43 22 13 31 183 20 345 -5 77 -9 176 -8 220 1
91 34 252 56 277 9 10 13 24 10 32 -3 8 2 16 14 19 23 6 25 39 3 61 -13 13
-43 16 -168 16 l-152 0 -62 -137z"/>
<path d="M5515 4109 c-83 -43 -92 -53 -100 -112 -10 -70 -17 -81 -65 -97 -55
-18 -74 -47 -65 -101 6 -32 14 -45 37 -58 17 -9 42 -26 57 -38 l26 -21 6 -219
c7 -243 10 -259 76 -333 22 -25 48 -59 57 -77 34 -67 102 -113 166 -113 25 0
50 4 55 8 20 13 55 83 55 107 0 13 5 27 10 30 7 4 7 12 0 25 -16 29 -12 34 8
10 14 -17 33 -23 92 -29 41 -5 69 -9 63 -10 -7 0 -13 -9 -13 -19 0 -21 119
-97 166 -105 49 -9 103 3 109 24 10 29 -6 180 -19 184 -6 2 -23 6 -38 9 -49
11 -63 47 -60 155 5 214 28 261 129 261 55 1 116 17 129 34 6 9 20 16 30 16
10 0 32 11 49 24 l30 24 29 -25 c37 -31 66 -28 161 16 103 48 155 40 155 -24
0 -42 -33 -71 -95 -85 -88 -19 -257 -89 -288 -117 -64 -61 -86 -167 -48 -242
20 -38 81 -100 121 -121 12 -6 38 -28 58 -48 21 -20 62 -49 92 -64 49 -25 66
-28 156 -28 57 0 121 -6 147 -14 53 -16 95 -13 139 10 l31 16 -7 126 c-3 69
-7 126 -9 127 -25 11 -98 76 -107 93 -7 16 -8 93 -4 240 7 248 4 261 -75 317
-38 27 -50 30 -142 33 -63 3 -117 0 -146 -8 -58 -17 -163 -93 -163 -119 0 -11
-4 -23 -10 -26 -6 -4 -10 10 -10 35 0 78 -52 130 -129 130 -54 0 -104 -26
-169 -88 -59 -55 -65 -53 -78 28 -4 23 -13 44 -21 47 -9 3 -43 -4 -77 -16 -43
-15 -85 -21 -139 -21 -75 0 -78 -1 -72 -21 4 -11 3 -32 -1 -47 -7 -23 -9 -19
-14 28 l-5 55 -90 10 -90 10 0 120 c0 140 0 140 -90 94z m113 -443 c2 11 34
10 84 -2 34 -8 154 26 136 38 -9 5 -8 8 4 8 35 0 42 -38 46 -277 l5 -233 -27
-10 c-47 -17 -55 -13 -49 24 4 27 1 36 -17 49 -20 14 -26 14 -51 1 -41 -21
-102 -18 -124 6 -28 31 -34 93 -27 290 4 116 9 168 13 140 3 -25 7 -40 7 -34z
m1212 -302 c0 -92 -98 -153 -180 -111 -31 16 -53 59 -45 90 5 19 17 26 58 35
83 18 90 20 130 21 36 1 37 0 37 -35z"/>
<path d="M4108 3896 c-113 -30 -230 -132 -268 -234 -38 -101 -45 -154 -32
-234 24 -137 82 -220 222 -313 36 -23 85 -64 110 -90 86 -89 175 -119 258 -86
47 19 120 83 131 115 2 6 30 43 62 83 l59 71 2 169 3 168 -40 80 c-102 205
-319 322 -507 271z m-118 -69 c0 -2 -17 -19 -37 -38 l-38 -34 34 38 c33 34 41
42 41 34z m368 -187 c51 -68 54 -231 6 -303 -14 -21 -22 -41 -20 -46 3 -4 -6
-19 -19 -31 -14 -13 -25 -20 -25 -16 0 3 -14 -1 -31 -10 -37 -19 -69 -13 -120
24 -47 34 -78 79 -79 117 -2 46 7 107 19 138 6 16 11 33 11 38 0 16 100 108
123 112 12 2 43 5 68 6 39 1 48 -3 67 -29z"/>
<path d="M4314 3268 l-19 -23 23 19 c21 18 27 26 19 26 -2 0 -12 -10 -23 -22z"/>
<path d="M8244 3896 c-53 -17 -187 -109 -225 -155 -40 -49 -74 -122 -98 -215
l-21 -79 30 -63 c38 -79 107 -171 163 -217 24 -19 65 -57 93 -84 99 -96 180
-162 219 -176 22 -9 72 -21 111 -27 66 -10 75 -10 111 9 22 11 48 32 58 48 35
53 69 78 103 75 18 -2 32 -7 32 -13 0 -5 9 -9 20 -9 11 0 25 -9 32 -20 7 -11
18 -20 24 -20 5 0 29 -9 52 -20 22 -11 46 -20 51 -20 6 0 27 -10 48 -21 32
-18 50 -21 120 -17 74 4 85 7 108 32 26 28 25 31 -7 86 -29 50 -63 130 -67
159 -5 28 -12 36 -35 42 -31 9 -46 24 -45 49 0 9 6 4 14 -10 l13 -25 7 30 c20
97 40 154 71 201 20 30 41 54 48 54 7 0 17 5 24 12 6 6 35 22 64 34 66 28 91
68 85 134 -3 24 -10 46 -16 48 -7 2 -6 11 4 25 8 12 15 33 15 47 0 32 -32 85
-61 100 -38 21 -110 7 -165 -31 -93 -65 -91 -64 -115 -9 -11 27 -28 51 -37 55
-25 9 -280 -54 -286 -72 -4 -9 11 -30 41 -58 l48 -43 3 -264 c2 -208 0 -267
-10 -275 -7 -6 -34 -14 -60 -18 l-46 -7 14 42 c8 23 26 56 39 74 22 29 24 38
20 131 -5 115 -8 125 -57 220 -39 77 -132 173 -208 218 -90 52 -235 71 -326
43z m-177 -146 c-25 -27 -57 -78 -71 -112 -15 -35 -24 -50 -21 -33 11 53 59
136 94 166 20 16 37 29 39 29 2 0 -16 -22 -41 -50z m435 -127 c37 -42 47 -135
24 -223 -18 -67 -14 -77 7 -18 9 24 16 34 16 23 1 -21 -34 -105 -43 -105 -3 0
-3 8 1 18 7 18 5 17 -17 -12 -10 -13 -10 -17 -2 -12 19 11 14 -9 -7 -28 -28
-25 -85 -36 -127 -24 -53 14 -105 66 -110 108 -2 19 -6 40 -8 45 -6 16 12 118
22 124 5 3 17 20 26 37 23 39 75 67 140 75 28 3 54 7 57 8 3 0 13 -7 21 -16z"/>
<path d="M4867 3886 c-41 -15 -56 -25 -104 -70 -37 -34 -46 -60 -10 -30 l22
19 -19 -22 c-10 -13 -23 -20 -27 -17 -5 3 -18 -10 -29 -28 -17 -26 -20 -45
-17 -90 4 -70 35 -121 115 -184 70 -55 103 -73 165 -90 67 -18 115 -52 128
-93 11 -32 10 -36 -15 -58 -34 -29 -74 -29 -152 -3 -89 31 -118 56 -151 128
l-28 64 -35 -24 c-47 -32 -58 -76 -42 -170 18 -105 30 -123 75 -121 22 2 36
-2 34 -9 -3 -14 113 -101 178 -133 58 -29 149 -34 194 -11 38 20 94 92 115
146 9 25 22 77 30 117 13 69 12 74 -13 150 -22 66 -35 87 -86 139 -52 52 -73
66 -155 98 -106 42 -140 67 -140 105 l0 26 99 -3 100 -3 20 -35 c23 -38 40
-43 64 -16 42 46 56 123 36 195 -11 40 -31 48 -60 21 -15 -14 -23 -14 -77 0
-73 19 -164 20 -215 2z"/>
<path d="M2165 3630 c-29 -57 -15 -129 32 -154 15 -8 42 -28 58 -43 104 -98
296 -119 346 -39 17 26 19 46 17 123 -3 81 -6 94 -27 117 l-24 26 -193 0 -193
0 -16 -30z"/>
<path d="M2880 2597 c0 -88 -3 -106 -18 -120 -47 -43 -82 0 -82 100 0 100 -6
113 -46 113 l-34 0 0 -102 c0 -120 13 -150 82 -195 23 -15 50 -36 60 -45 31
-31 69 -17 75 26 3 20 0 24 -12 20 -9 -4 -3 7 14 23 37 38 44 75 34 188 l-8
90 -32 3 -33 3 0 -104z"/>
<path d="M3032 2687 c-6 -6 -12 -74 -13 -150 l-3 -138 28 -14 c16 -8 32 -15
37 -15 5 0 9 37 9 83 l0 82 53 -60 c88 -101 107 -119 119 -107 6 6 9 66 6 161
-3 159 -7 170 -51 171 -17 0 -18 -8 -15 -80 2 -44 0 -80 -3 -80 -4 0 -32 31
-63 70 -63 78 -88 96 -104 77z"/>
<path d="M3991 2640 c-23 -33 -45 -60 -49 -60 -4 0 -22 23 -41 50 -35 51 -76
74 -91 50 -9 -15 -20 -273 -11 -281 3 -4 21 -9 39 -12 l32 -6 0 81 0 82 27
-42 c15 -23 35 -42 44 -42 10 0 31 21 48 46 l30 46 3 -83 3 -84 30 0 30 0 -3
134 c-1 100 -6 141 -17 158 -9 13 -19 23 -24 23 -4 0 -27 -27 -50 -60z"/>
<path d="M4220 2643 c-13 -32 -41 -98 -62 -146 -21 -48 -38 -91 -38 -96 0 -11
50 -32 61 -25 5 3 16 18 24 35 14 26 21 29 61 29 42 0 46 -2 59 -34 16 -38 52
-57 67 -35 5 8 7 32 4 53 -6 48 -118 270 -139 274 -9 2 -22 -17 -37 -55z m48
-131 c-38 -4 -41 0 -27 32 l13 27 22 -28 22 -28 -30 -3z"/>
<path d="M5146 2678 c-9 -12 -16 -26 -16 -31 0 -5 -25 -62 -55 -127 -61 -129
-63 -153 -11 -148 25 2 33 9 41 36 8 29 13 32 48 32 49 0 73 -13 81 -45 5 -21
12 -25 41 -25 42 0 44 11 16 91 -25 72 -109 239 -121 239 -5 0 -16 -10 -24
-22z m54 -159 c0 -5 -13 -9 -30 -9 -33 0 -37 9 -17 40 12 21 12 21 30 -1 9
-12 17 -25 17 -30z"/>
<path d="M5721 2648 c-13 -29 -35 -75 -47 -103 -13 -27 -32 -63 -43 -80 -27
-38 -26 -66 0 -88 31 -27 62 -18 74 21 9 32 11 33 60 30 46 -3 50 -5 53 -30 3
-22 9 -28 27 -28 13 0 30 -3 39 -6 22 -8 22 40 0 92 -84 207 -104 244 -128
244 -6 0 -22 -24 -35 -52z m69 -134 c0 -12 -47 -7 -55 6 -2 4 3 17 12 30 l16
23 13 -24 c7 -13 13 -29 14 -35z"/>
<path d="M6137 2668 c-8 -18 -35 -78 -61 -134 -25 -56 -46 -108 -46 -117 0 -9
12 -24 26 -34 30 -20 57 -9 62 26 3 18 10 21 53 21 34 0 49 -4 49 -13 0 -24
24 -44 60 -51 21 -3 30 -3 22 3 -11 6 -9 9 7 14 19 5 18 10 -25 108 -64 148
-101 208 -126 209 -4 0 -14 -15 -21 -32z m46 -115 c2 -10 8 -26 12 -35 6 -15
2 -18 -24 -18 -34 0 -37 6 -19 45 13 29 24 32 31 8z"/>
<path d="M7099 2693 c0 -4 0 -41 1 -80 1 -41 -3 -73 -8 -73 -5 0 -35 31 -66
70 -58 71 -100 96 -117 69 -5 -8 -9 -74 -9 -147 0 -117 2 -133 18 -139 9 -4
21 -12 25 -20 4 -7 19 -13 33 -13 19 0 24 4 20 18 -8 29 -19 152 -13 152 4 0
33 -35 66 -79 61 -80 80 -95 106 -85 13 5 15 31 13 168 l-3 161 -32 3 c-18 2
-33 0 -34 -5z"/>
<path d="M7545 2545 c4 -82 12 -158 17 -167 5 -10 22 -25 38 -33 53 -27 173
-14 153 18 -4 7 -10 30 -13 52 l-5 40 -58 3 c-49 3 -58 6 -55 20 2 13 16 18
51 20 46 3 48 4 45 30 -3 24 -8 27 -46 30 -35 3 -45 8 -52 28 -6 14 -10 28
-10 31 0 3 29 3 65 1 l65 -4 0 41 0 40 -101 0 -101 0 7 -150z"/>
<path d="M7799 2698 c-1 -2 -3 -70 -4 -152 -3 -134 -1 -150 16 -167 10 -10 28
-19 39 -19 16 0 20 7 20 38 0 42 13 68 28 58 6 -4 21 -24 33 -46 14 -24 34
-43 52 -50 17 -5 28 -7 24 -4 -4 4 -2 13 4 20 7 9 4 27 -12 63 l-21 50 26 31
c39 46 36 98 -8 144 -33 36 -34 36 -115 36 -44 0 -82 -1 -82 -2z m150 -96 c15
-28 -5 -52 -44 -52 -34 0 -36 4 -19 58 5 18 52 14 63 -6z"/>
<path d="M3394 2671 c-46 -28 -77 -77 -81 -130 -6 -63 23 -104 114 -159 70
-42 73 -42 101 -28 16 8 32 13 34 10 3 -3 8 5 11 17 5 18 2 20 -21 14 l-27 -6
24 17 c30 21 81 102 81 128 0 39 -39 101 -82 129 -50 32 -109 36 -154 8z m106
-73 c46 -32 58 -72 33 -107 -11 -14 -32 -30 -47 -36 -25 -9 -32 -6 -62 28 -43
46 -44 77 -3 111 37 32 38 32 79 4z"/>
<path d="M4455 2665 c-18 -17 -25 -35 -25 -63 0 -44 24 -72 83 -97 38 -16 49
-41 22 -51 -8 -3 -24 1 -37 10 -12 9 -33 16 -45 16 -19 0 -23 -5 -23 -29 0
-38 50 -71 108 -71 33 0 45 6 71 35 40 46 41 85 4 120 -15 14 -33 25 -38 25
-6 0 -26 14 -45 30 l-35 30 60 -2 c57 -3 60 -2 63 21 5 35 -22 51 -85 51 -44
0 -59 -5 -78 -25z"/>
<path d="M4817 2608 c-4 -46 -7 -113 -7 -149 0 -61 2 -67 23 -73 50 -13 57 -9
57 39 0 44 1 45 33 45 69 0 134 65 123 123 -12 63 -69 97 -165 97 l-58 0 -6
-82z m139 -9 c24 -27 9 -53 -35 -57 -29 -3 -31 -1 -31 31 0 18 3 37 7 40 13
13 40 7 59 -14z"/>
<path d="M5356 2550 c-7 -159 -2 -180 44 -180 29 0 30 2 30 46 0 38 3 45 17
42 10 -2 30 -22 46 -46 20 -29 35 -42 52 -42 36 0 50 61 18 79 -49 28 -49 27
-10 70 43 47 44 58 17 112 -25 48 -50 59 -139 59 l-68 0 -7 -140z m136 58 c9
-7 19 -23 22 -35 8 -25 -16 -43 -58 -43 -23 0 -26 4 -26 38 0 21 3 42 7 45 10
11 38 8 55 -5z"/>
<path d="M6320 2676 c0 -8 -2 -21 -5 -28 -4 -10 8 -18 45 -26 29 -7 62 -12 76
-12 24 0 24 -1 24 -104 0 -97 2 -105 23 -118 12 -8 31 -18 42 -21 19 -7 20 -3
17 118 l-3 125 37 0 c36 0 36 1 30 31 -3 17 -6 35 -6 40 0 5 -63 9 -140 9
-114 0 -140 -3 -140 -14z"/>
<path d="M6650 2535 c0 -101 4 -155 10 -155 6 0 20 -8 31 -18 23 -22 84 -42
127 -42 36 0 46 20 40 86 l-3 39 -68 3 c-58 2 -68 6 -65 20 2 12 19 20 56 26
43 8 52 13 52 31 0 32 -19 45 -67 45 -39 0 -43 2 -43 25 0 24 2 25 65 25 l65
0 0 35 0 35 -100 0 -100 0 0 -155z"/>
<path d="M7238 2548 c3 -167 13 -198 74 -223 21 -8 49 -15 61 -15 33 0 96 47
97 73 0 4 -10 12 -22 16 -20 8 -21 10 -6 16 32 13 58 69 58 123 0 43 -5 57
-31 87 -46 52 -77 65 -161 65 l-73 0 3 -142z m163 36 c11 -10 19 -31 19 -50 0
-39 -38 -74 -81 -74 l-29 0 0 76 0 77 36 -6 c20 -3 45 -14 55 -23z"/>
<path d="M8076 2464 c-21 -20 -21 -70 0 -78 25 -10 59 -7 72 6 13 13 16 64 5
71 -27 15 -63 16 -77 1z"/>
<path d="M8212 2458 c-36 -36 7 -88 62 -74 20 5 26 13 26 34 0 35 -16 52 -50
52 -14 0 -31 -5 -38 -12z"/>
<path d="M8354 2456 c-20 -53 36 -97 76 -61 13 12 20 28 18 44 -3 23 -8 26
-46 29 -30 2 -44 -1 -48 -12z"/>
<path d="M8465 2450 c-4 -6 -1 -18 6 -26 24 -29 108 -6 109 29 0 11 -108 8
-115 -3z"/>
<path d="M5379 2014 c-8 -9 -19 -35 -25 -58 -10 -41 -10 -41 -55 -39 -24 1
-532 5 -1129 10 -1058 9 -1085 9 -1102 -10 -16 -17 -16 -21 -2 -49 28 -54 69
-61 160 -28 23 9 272 5 349 -6 101 -13 1262 -3 1286 12 13 8 373 12 422 4 36
-5 56 -14 67 -30 29 -44 72 -80 95 -80 26 0 90 55 99 87 6 18 17 23 62 29 30
3 76 4 102 0 77 -10 281 -18 547 -20 138 -2 421 -6 630 -10 370 -8 383 -8 490
14 94 19 129 21 240 16 71 -3 145 -10 163 -15 28 -8 36 -7 53 10 22 22 25 62
7 76 -16 11 -1985 8 -2186 -4 -133 -7 -142 -7 -142 10 0 27 -27 75 -49 87 -29
15 -67 12 -82 -6z"/>
</g>
</svg>
